<svg version="1.1" id="Layer_1" xmlns="http://www.w3.org/2000/svg" xmlns:xlink="http://www.w3.org/1999/xlink" x="0px" y="0px"
	 width="100%" viewBox="0 0 1024 880" enable-background="new 0 0 1024 880" xml:space="preserve">
<path fill="#000000" opacity="1.000000" stroke="none" 
	d="
M888.645264,524.623413 
	C885.181396,537.215942 881.561157,549.336243 877.688721,561.390625 
	C875.343628,568.690857 873.101318,575.947449 869.690125,582.886047 
	C865.275024,591.866882 862.831848,601.575989 860.074585,611.206787 
	C855.411255,627.495300 849.835449,643.534241 844.228455,659.532715 
	C842.830017,663.523071 839.596497,666.820435 837.136353,670.344543 
	C829.940002,680.653015 824.678894,692.432434 814.224731,700.334595 
	C807.105225,705.716064 803.012695,713.593994 799.489258,721.463867 
	C794.916077,731.678711 788.989929,741.164429 784.365112,751.326782 
	C777.590210,766.213379 765.330444,775.499207 751.353882,782.697754 
	C743.130249,786.933228 734.869019,791.406555 725.232910,792.034363 
	C723.208618,792.166260 721.060852,793.338013 719.330383,794.546692 
	C711.122437,800.279724 702.439636,805.007263 692.824097,807.924805 
	C687.627380,809.501648 683.603516,813.199158 678.903137,815.698181 
	C663.424377,823.927979 646.906616,828.501648 629.675659,831.225098 
	C617.512390,833.147583 605.534363,836.217224 593.395325,838.323669 
	C575.610413,841.409546 557.719788,842.497437 539.778076,839.481323 
	C533.084473,838.356079 526.497620,840.052429 519.848389,840.133301 
	C512.658142,840.220764 505.561554,840.225769 498.744019,837.263184 
	C495.190125,835.718872 491.319733,835.839661 487.425110,836.351868 
	C480.024414,837.325256 472.684845,838.429932 465.085205,837.226379 
	C457.550507,836.033020 449.747040,836.492188 442.234528,835.211548 
	C422.456512,831.839905 410.131561,819.317810 406.002014,799.741089 
	C404.833038,794.199524 403.505280,788.700989 403.028107,783.054810 
	C402.725037,779.468872 400.198975,777.461304 397.845184,775.423218 
	C394.036926,772.125793 393.186157,768.644958 395.435242,763.930237 
	C399.168549,756.104126 395.755493,751.635193 387.025909,752.577393 
	C383.547150,752.952942 379.958710,753.442688 376.898590,755.154114 
	C368.095703,760.077271 358.671356,762.649902 348.853943,764.928284 
	C337.240540,767.623535 328.582520,764.931396 321.539886,755.751160 
	C316.982513,749.810425 312.377838,743.902222 307.974701,737.848206 
	C305.122711,733.927002 301.671967,731.905640 296.654816,731.759277 
	C289.348663,731.546143 282.047760,730.786072 274.771729,730.006348 
	C266.885498,729.161194 260.740204,724.999268 255.807678,719.021545 
	C252.223816,714.678406 247.913422,711.449890 242.743134,709.285645 
	C228.852478,703.471191 224.347290,690.867554 232.002777,677.809326 
	C236.650574,669.881409 237.726639,662.509949 232.332687,654.531555 
	C228.913422,649.473999 228.029495,643.789368 230.171539,637.811584 
	C231.212112,634.907715 231.011124,631.856689 230.263794,628.921753 
	C227.903885,619.653931 234.551590,605.054871 243.359177,601.479065 
	C248.012146,599.590027 250.256348,595.329529 252.928650,591.570129 
	C255.293808,588.242798 258.109802,585.804016 261.722565,583.731567 
	C273.486603,576.983215 275.418030,565.914917 267.869995,553.775940 
	C264.170349,547.826111 261.078857,542.062195 260.232635,535.097961 
	C259.893036,532.302979 259.290955,529.474609 258.340179,526.829651 
	C250.988693,506.379822 251.352982,485.481934 253.191299,464.157776 
	C254.801376,445.481384 255.801117,426.625122 250.854309,408.020325 
	C248.310394,398.452759 243.585495,390.177155 238.344986,382.052582 
	C222.690781,357.783112 217.471710,331.574036 223.704224,303.275940 
	C225.459137,295.307892 227.546036,287.409607 229.623032,279.516754 
	C232.005020,270.464844 231.609024,261.211212 230.526733,252.193573 
	C228.524719,235.512955 232.455734,220.786148 241.073212,206.486115 
	C248.862366,193.560608 258.460907,182.068665 267.785248,170.433838 
	C277.525909,158.279526 290.246338,149.589478 305.165344,143.940964 
	C320.898987,137.983994 337.208435,133.767120 352.710724,127.084251 
	C365.694122,121.487236 374.750824,112.549744 378.702332,99.276543 
	C382.376892,86.933701 391.123901,79.859604 400.992920,72.898788 
	C414.846680,63.127468 430.223450,56.416309 445.234467,48.915379 
	C455.831390,43.620144 466.844116,40.762436 478.871155,40.853573 
	C496.967346,40.990704 514.956665,38.956089 531.465332,30.995922 
	C539.865601,26.945456 548.351990,24.347551 557.478271,22.858995 
	C569.150146,20.955227 580.044373,23.400204 590.692932,27.547743 
	C597.028442,30.015390 603.429871,31.619143 610.183472,31.039419 
	C620.928101,30.117098 631.831299,30.888641 642.398621,28.012039 
	C657.196960,23.983654 668.193787,31.660852 678.632507,40.273308 
	C685.918030,46.284229 691.544617,53.581463 693.984314,63.106926 
	C695.478088,68.939102 699.142090,73.244118 704.813538,76.099670 
	C711.806580,79.620590 717.035522,85.760193 723.919861,89.666275 
	C731.148865,93.767952 738.687378,95.073303 746.557312,93.653198 
	C758.831665,91.438347 767.011108,97.684402 773.941772,106.295464 
	C778.313843,111.727699 781.978210,117.739716 787.045959,122.613571 
	C801.861938,136.862762 813.369019,153.958420 827.108276,169.125641 
	C844.029785,187.805893 853.302734,210.354050 859.484192,234.223282 
	C864.186829,252.382233 871.315918,269.588470 878.034302,286.969727 
	C885.731750,306.883881 889.035583,327.260223 887.317139,348.633911 
	C885.754456,368.070679 890.996643,386.677917 896.628784,404.972839 
	C904.033936,429.027313 906.424866,453.266693 900.828369,477.882874 
	C897.290649,493.443329 893.791138,509.049011 888.645264,524.623413 
M275.796844,697.346558 
	C271.303955,692.187683 269.054657,685.745056 266.241699,679.334473 
	C262.498749,681.405518 260.009705,684.315979 255.004959,685.212280 
	C258.776642,685.871948 260.895142,686.015869 262.643646,683.741394 
	C264.810059,680.923279 266.351288,681.735962 267.437622,684.851074 
	C269.204529,689.917786 271.633453,694.605591 276.212433,698.692871 
	C276.893982,702.447205 274.000824,701.104492 272.367645,701.272034 
	C267.720947,701.748657 262.755127,700.162659 257.934509,703.401367 
	C262.233978,704.840271 265.743011,702.941772 269.355164,702.978516 
	C273.147461,703.017090 277.082092,702.289185 279.689880,706.273438 
	C280.839355,704.706055 281.762604,703.546936 283.717896,703.675903 
	C279.954498,703.079163 279.020111,699.148743 275.796844,697.346558 
M359.382294,686.242065 
	C354.407501,692.577820 348.008881,697.329773 341.209229,701.352844 
	C336.486725,704.147034 336.714233,707.515381 338.052704,712.710999 
	C339.481415,708.657776 336.912506,703.381165 341.973877,702.707703 
	C346.939117,702.046936 349.609894,699.366333 352.494507,695.824707 
	C355.104492,692.620117 358.165161,689.796326 360.577972,685.648804 
	C362.070496,681.731567 366.370850,679.847412 367.752075,675.845093 
	C363.950470,678.310730 360.977722,681.397339 359.382294,686.242065 
M393.588318,635.736023 
	C395.570740,634.467102 396.916656,632.916504 395.736084,630.401794 
	C394.530426,627.833679 392.846710,625.862305 389.634583,626.341614 
	C384.672394,627.081970 383.394592,624.787170 383.533478,620.113708 
	C383.692780,614.753052 383.724365,609.431152 386.006836,604.502380 
	C389.534485,596.885010 388.026031,588.664185 389.042999,580.721741 
	C388.262451,582.661072 387.569061,584.730469 387.743744,586.723816 
	C388.327057,593.382263 386.969849,599.640625 384.384918,605.683472 
	C382.300568,610.556091 381.955017,615.637451 381.997162,620.843201 
	C382.053864,627.847656 381.966125,627.848389 388.964386,628.859436 
	C393.767944,629.553406 394.659637,631.125671 392.296082,636.327087 
	C390.457489,637.330566 388.496063,637.553345 386.491302,637.065308 
	C382.715942,636.146179 381.079376,637.821960 380.229279,641.420837 
	C378.973328,646.737915 378.372314,652.189453 376.572144,657.408752 
	C375.452576,660.654907 372.855286,663.303101 372.576965,667.138794 
	C375.973480,668.735840 380.423096,669.395142 379.235748,674.968140 
	C381.182343,670.424683 381.182343,670.424683 375.239441,664.472717 
	C378.703918,657.436829 379.215576,649.526672 381.531250,642.113281 
	C382.424957,639.252197 383.201385,637.247986 386.971832,638.372742 
	C389.171143,639.028748 391.559753,638.234375 393.588318,635.736023 
M670.970154,650.518005 
	C668.943726,650.227356 667.152954,650.655396 665.218567,651.508667 
	C658.226257,654.593018 646.329468,651.706909 640.696228,646.435120 
	C636.053833,642.090576 632.122192,636.775452 625.681702,634.579102 
	C623.632141,633.880127 622.711670,631.904358 623.154846,629.663635 
	C623.543701,627.697693 624.796021,626.050781 626.811462,626.096436 
	C635.548828,626.294556 642.880859,621.877258 650.502625,618.776245 
	C670.869141,610.489929 683.173401,594.530212 689.591675,574.138062 
	C692.211548,565.814392 691.918457,556.727539 691.259705,547.903381 
	C691.158997,546.554871 690.585083,544.801697 691.819275,544.201416 
	C695.098938,542.606262 696.795410,539.374084 699.585266,537.357300 
	C701.700684,535.828003 704.062073,534.887939 706.379700,537.104980 
	C708.722900,539.346497 707.844666,541.444336 706.223877,543.733643 
	C703.982666,546.899292 705.711426,551.209167 709.402588,552.135559 
	C715.027710,553.547363 723.752136,548.519348 725.566162,542.820312 
	C728.495178,533.618286 720.622375,520.621826 711.125000,518.980896 
	C705.782593,518.057861 704.582214,514.980835 707.739746,510.498444 
	C709.321289,508.253296 711.252686,506.546112 713.851440,505.572296 
	C716.685974,504.510101 719.299377,502.975586 721.515503,500.942108 
	C745.917908,478.550598 759.581177,450.522369 762.437134,417.840302 
	C764.290649,396.630005 763.731628,375.226868 757.653259,354.384949 
	C752.680664,337.334564 745.802795,321.133606 736.564758,306.001221 
	C727.312805,290.846069 714.536316,278.828400 700.339111,268.512329 
	C692.459900,262.787079 684.756775,256.420074 675.248169,253.271011 
	C670.775574,251.789780 668.569092,248.726151 670.211243,244.251068 
	C671.417419,240.964050 670.911804,239.068878 668.288879,237.038315 
	C667.133057,236.143570 666.608093,234.433807 665.681580,232.903915 
	C661.810120,235.684723 657.854248,237.778137 653.232178,238.118408 
	C650.682129,238.306152 647.947937,238.376450 647.024902,235.295471 
	C646.176758,232.464355 647.622986,230.404373 650.188354,229.269150 
	C653.467102,227.818222 656.009705,225.350235 658.551819,223.025772 
	C663.066040,218.898026 665.577332,213.722992 664.401978,207.374008 
	C662.655945,197.942383 655.854065,192.987488 647.514771,190.839066 
	C640.143250,188.939987 633.475830,192.285980 628.158997,197.668228 
	C621.012512,204.902679 621.008240,206.171753 627.365173,213.593292 
	C628.963074,215.458817 630.223877,217.397858 628.542542,219.856232 
	C626.984375,222.134552 624.879150,223.120834 622.083313,222.579620 
	C620.224182,222.219727 618.686951,221.268784 617.142578,220.270920 
	C612.528320,217.289520 607.921570,214.354080 602.798828,212.208115 
	C585.198669,204.835327 566.243896,204.694016 547.878723,203.600739 
	C526.668274,202.338104 505.345062,205.386871 485.264282,213.697678 
	C484.090210,214.183578 482.593689,214.360229 481.356354,214.119614 
	C479.180115,213.696396 477.715790,214.357727 475.977661,215.695908 
	C471.865875,218.861649 468.678131,217.393219 467.951080,212.313400 
	C465.420074,194.630234 447.833160,185.849823 432.800415,194.764175 
	C423.175934,200.471451 421.354370,214.086914 429.327637,221.901062 
	C431.922485,224.444092 434.594086,227.038879 438.037903,228.524445 
	C440.957672,229.783905 442.778564,231.856033 442.095490,235.131790 
	C441.376495,238.579773 438.482391,238.500641 435.728851,238.461136 
	C433.989563,238.436157 431.353027,237.744705 431.420654,240.401169 
	C431.586945,246.932983 426.610352,248.501572 422.201569,249.915451 
	C411.952850,253.202194 402.625183,257.878601 393.743683,264.064758 
	C366.441162,283.081604 345.621704,306.856201 335.901398,339.296753 
	C331.173981,355.073975 326.494659,370.859406 324.871735,387.344147 
	C322.671967,409.688324 324.482971,431.484650 333.584167,452.336243 
	C337.380310,461.033600 340.614044,470.074860 346.301300,477.727234 
	C359.302368,495.220459 375.351105,508.768738 396.787628,514.938538 
	C399.509918,515.722046 402.011627,517.256409 400.804749,520.644531 
	C399.722626,523.682251 397.376190,526.071167 393.891693,524.627441 
	C388.530670,522.406250 383.038696,523.194946 377.599792,523.201843 
	C368.582092,523.213257 362.106598,527.943848 357.808258,535.476501 
	C354.444183,541.372070 357.193542,548.331604 363.240692,550.890808 
	C365.156860,551.701782 366.871643,551.896423 367.975067,549.827515 
	C372.299072,541.720032 378.466034,540.904175 386.975555,543.184448 
	C392.764709,544.735779 393.835968,547.256714 394.078949,552.416504 
	C394.647064,564.480164 397.157806,575.849609 404.097687,586.386230 
	C411.169037,597.122559 419.067902,606.767700 429.548431,614.132935 
	C436.752899,619.195984 444.262146,623.472961 453.260803,625.229553 
	C459.706543,626.487732 466.284943,627.845154 472.480591,630.482117 
	C476.224091,632.075378 477.462463,634.037842 476.636658,638.143433 
	C475.077118,645.896912 482.025482,656.813049 489.630981,659.078491 
	C493.560272,660.248840 497.292572,659.675659 500.228088,656.589233 
	C503.302795,653.356384 503.227722,649.802063 501.009094,646.052124 
	C500.172546,644.638184 499.471375,643.037476 499.170746,641.435242 
	C498.539825,638.072327 500.891876,635.740234 504.059845,636.602539 
	C517.821716,640.348938 532.034363,640.331909 546.073730,641.730347 
	C556.522156,642.771057 566.571167,639.853882 576.745361,638.257019 
	C579.315125,637.853577 581.774597,637.670410 583.636169,639.910156 
	C585.598328,642.270874 583.465637,643.839661 582.453308,645.643005 
	C579.968567,650.069214 580.250427,655.526917 583.052917,658.249512 
	C586.214600,661.321167 591.510803,661.685608 596.047974,659.008362 
	C602.706970,655.079163 607.139038,649.580322 608.159485,641.658386 
	C608.590454,638.312744 609.852417,634.948914 613.871704,635.493347 
	C618.284729,636.091125 617.960815,639.906189 617.003845,642.999146 
	C613.744141,653.535461 609.084351,662.750000 597.995789,667.737366 
	C592.837830,670.057251 588.051941,671.307434 583.300110,669.017639 
	C577.539429,666.241821 571.612488,664.590149 565.428955,663.463989 
	C565.283081,663.437500 565.228394,662.910400 565.112366,662.560120 
	C566.694458,660.744324 569.220886,661.679260 571.087341,660.601135 
	C570.452759,659.507263 569.317200,659.846436 568.440796,659.539368 
	C566.305786,658.791260 562.307678,660.553101 562.352905,657.152649 
	C562.396790,653.850464 566.267029,655.106201 568.536621,654.918823 
	C571.264465,654.693481 571.853516,653.136169 571.763245,650.882874 
	C571.646423,647.968262 569.753479,648.593689 567.838562,648.786072 
	C560.257935,649.547852 552.823303,651.424683 545.034302,650.535889 
	C535.451233,649.442383 525.789001,649.022827 516.154114,648.421631 
	C514.301208,648.306030 511.624634,647.580322 511.273834,650.440491 
	C510.623810,655.739990 509.441315,660.763672 504.536194,665.890137 
	C511.996582,665.890137 517.767151,665.846680 523.536255,665.918152 
	C525.150208,665.938110 527.387573,665.862610 527.477051,668.013977 
	C527.588928,670.705017 525.089233,670.338318 523.379456,670.344482 
	C510.881042,670.389709 498.382324,670.353394 485.883728,670.324402 
	C484.215057,670.320557 482.196533,670.456482 481.500092,668.640503 
	C480.070221,664.912415 477.117035,665.146790 474.066833,665.236816 
	C472.236603,665.290955 470.398804,665.272217 468.571075,665.169006 
	C467.191040,665.090942 465.735352,664.734192 465.779327,662.988342 
	C465.825317,661.161743 467.459473,661.255676 468.740479,661.011719 
	C470.320862,660.710693 472.059845,661.410645 473.591614,660.260620 
	C472.966919,655.925903 467.950806,658.277954 466.434784,655.732544 
	C472.120361,650.094055 465.866394,644.908997 466.459747,639.606201 
	C466.263550,643.202698 466.258820,646.807007 467.475189,650.487183 
	C463.591187,652.272217 459.510498,650.399170 455.992371,651.978943 
	C446.068054,656.435425 435.613373,656.949524 424.985962,656.343201 
	C423.824677,656.276917 422.643127,656.272949 421.490204,656.406250 
	C417.930664,656.817810 417.481628,657.507019 417.966827,661.506226 
	C421.008118,658.049011 446.728027,658.003540 452.518738,661.864807 
	C444.341858,664.433655 436.236420,661.707031 428.533966,663.730042 
	C429.316559,665.098511 430.297852,666.380493 430.836548,667.827209 
	C434.233093,676.949585 438.509033,680.138000 448.319336,680.629822 
	C450.287048,680.728516 453.301239,681.553589 454.048553,680.618164 
	C457.113831,676.781311 461.026642,678.193787 464.669739,678.107788 
	C468.030762,678.028503 470.945648,678.748047 469.109344,683.293396 
	C470.951691,683.600037 472.549438,683.543762 473.855713,684.133362 
	C487.139069,690.129211 501.231140,688.737305 515.112854,688.370850 
	C518.684082,688.276550 521.590393,687.723145 523.539734,691.275330 
	C525.288452,690.526001 526.743347,689.505554 528.305969,689.298645 
	C537.399841,688.094360 546.734192,686.556458 555.659973,688.178406 
	C562.097534,689.348267 566.100891,685.851990 571.128601,684.199036 
	C572.217224,683.841125 573.203918,682.838379 574.267090,682.790649 
	C582.524963,682.419189 590.585388,680.081543 598.941589,680.557983 
	C604.401733,680.869446 610.023926,681.385620 615.279480,679.530518 
	C624.141052,676.402527 633.175049,675.646240 642.520447,675.368774 
	C649.552429,675.159973 657.324219,674.457825 661.479309,666.821899 
	C661.988831,665.885498 663.099976,665.782837 664.122803,665.667114 
	C668.689026,665.150696 673.226318,663.635742 677.759033,666.162354 
	C679.827148,667.315186 681.773987,665.881653 683.017822,664.413269 
	C684.246277,662.963135 684.257935,659.855286 683.153076,659.342224 
	C678.672729,657.261902 677.101135,651.444397 670.970154,650.518005 
M368.557098,653.936584 
	C371.330200,644.125305 372.952057,634.142822 372.824799,623.926880 
	C372.730286,616.339111 373.979553,609.029480 376.818604,601.979736 
	C378.260986,598.398010 378.881531,594.642822 379.044312,590.774414 
	C379.352722,583.445984 379.647614,576.046387 383.366577,569.455383 
	C385.477448,565.714355 385.602905,562.041992 384.764465,557.957092 
	C383.377106,551.197693 381.580048,550.467712 375.855774,554.551758 
	C372.562225,556.901550 369.833160,561.198608 365.157043,560.012085 
	C358.880280,558.419434 355.566925,561.495544 352.710083,566.209229 
	C351.504883,568.197754 350.173950,570.125916 348.743347,571.959167 
	C343.315369,578.914734 337.961761,586.361389 329.778290,589.944275 
	C323.477264,592.702942 317.468170,595.764648 311.753906,599.464966 
	C298.253510,608.207397 287.728638,619.829468 279.432007,633.525208 
	C277.273315,637.088684 277.130676,639.920837 282.105560,641.349243 
	C284.699005,642.093811 286.428040,644.454041 285.434814,647.205139 
	C284.380524,650.125488 281.587799,649.501038 279.437317,648.580383 
	C274.805847,646.597717 274.040619,648.770935 273.968292,652.819763 
	C273.810303,661.667053 274.250488,670.401123 276.317688,679.062805 
	C278.442841,687.967346 285.312683,695.630066 293.090454,696.963928 
	C293.562286,696.212158 294.094177,695.392334 294.598389,694.555847 
	C295.838928,692.497864 296.549286,689.281189 299.827728,690.395813 
	C303.348480,691.592773 302.309357,694.671326 301.457825,697.185852 
	C299.829681,701.993652 303.501007,702.019287 306.291901,702.580200 
	C316.383759,704.608398 325.381409,701.362732 333.852051,696.321289 
	C350.266266,686.552246 360.248169,671.403442 368.557098,653.936584 
M385.006592,690.851013 
	C377.566559,689.028564 372.905731,692.188843 370.391205,698.925171 
	C379.273346,703.803528 385.391693,696.739685 393.118500,694.501892 
	C390.908081,691.016357 388.325256,690.886719 385.006592,690.851013 
M275.759705,623.368835 
	C279.245300,618.823853 282.730896,614.278809 286.216522,609.733826 
	C282.309784,613.036011 279.326202,617.081726 276.039642,620.864197 
	C271.299500,626.319580 270.028839,634.181091 263.614532,638.474243 
	C262.076752,639.503418 261.779358,641.623596 262.434296,643.036743 
	C265.534912,649.726746 263.397705,656.812927 264.359467,663.618286 
	C265.137909,669.126648 262.985718,672.355530 258.094360,674.397095 
	C255.937057,675.297546 253.811020,676.514038 253.386261,679.961304 
	C254.659119,678.862122 255.295898,677.943359 256.154266,677.628235 
	C264.490021,674.568054 266.355896,668.267700 265.049103,660.288330 
	C264.132019,654.688782 267.410736,648.735474 263.575256,643.344849 
	C262.985229,642.515442 263.318909,641.154663 264.152039,640.610840 
	C270.242889,636.635437 271.520996,629.443665 275.759705,623.368835 
M283.656036,593.681702 
	C284.697266,594.956848 285.885620,596.139587 286.754974,597.522766 
	C291.189484,604.578064 290.759460,604.005371 297.345276,599.533508 
	C303.707458,595.213501 306.839172,591.086670 301.404572,584.571228 
	C300.924896,586.099609 301.721771,587.886841 302.597717,589.623962 
	C303.462524,591.338867 303.511719,593.218262 301.781891,593.985046 
	C298.198944,595.573181 296.755188,600.232544 292.348572,600.378601 
	C291.691467,600.400330 290.791565,599.675659 290.374786,599.049500 
	C289.391541,597.572144 288.117676,596.381226 287.549286,594.483398 
	C286.579224,591.244263 284.111298,589.701599 280.674683,591.119812 
	C277.283386,592.519470 276.527954,595.239319 277.742249,598.482544 
	C278.176941,599.643677 279.179108,600.592285 280.305603,602.177246 
	C278.056793,594.867554 278.268402,594.272583 283.656036,593.681702 
M321.165314,584.679077 
	C331.122375,579.502747 340.998566,569.702515 343.078766,562.502258 
	C340.219696,566.166626 337.699860,569.358459 335.220947,572.581665 
	C330.742157,578.405090 324.432983,581.330078 318.031189,584.541748 
	C314.077118,586.525391 312.791901,585.422302 311.983185,582.344421 
	C310.784454,577.782227 307.879333,578.153076 304.196625,579.243103 
	C311.551910,578.143494 309.733917,585.729736 313.164093,588.333069 
	C315.704102,587.166504 318.093658,586.069092 321.165314,584.679077 
M322.736633,711.091736 
	C324.621643,710.138794 327.323425,711.521851 329.521057,708.123840 
	C319.176758,712.085327 309.499664,711.917786 299.736053,710.849487 
	C298.008331,710.660522 296.159851,711.156982 294.917816,712.942383 
	C303.997925,711.610718 313.129272,714.171509 322.736633,711.091736 
M403.053467,659.558594 
	C400.996643,660.705078 396.903351,659.916138 397.881439,664.036621 
	C398.804840,667.926941 402.275848,666.337341 405.100433,666.723083 
	C403.436401,664.589844 400.070190,666.701477 398.677917,662.275085 
	C403.825592,663.501465 408.537689,660.261536 413.967957,665.114746 
	C411.735657,659.075317 407.429077,659.947144 403.053467,659.558594 
M358.071503,692.652283 
	C357.715820,696.418579 359.989075,698.004333 364.726349,697.233459 
	C364.881561,695.675537 365.362671,694.090820 364.424988,692.531616 
	C362.472595,692.410156 360.596497,691.513794 358.071503,692.652283 
M270.014038,708.256409 
	C270.724487,710.811890 267.701233,710.220642 266.543152,711.680359 
	C270.086060,712.806335 272.753265,710.688477 275.654266,711.037842 
	C273.423615,710.627869 273.639313,706.055481 270.014038,708.256409 
M702.083618,567.623779 
	C702.997559,566.269470 702.083557,564.264709 703.732483,563.078674 
	C705.241028,562.644470 706.986084,564.581909 708.815430,562.654907 
	C706.460510,562.231262 704.426697,561.865356 702.383057,561.497681 
	C701.034363,563.804138 701.307922,566.128052 701.277954,568.393005 
	C701.271118,568.910461 701.525879,568.975830 701.715576,568.577332 
	C701.785828,568.429871 701.828308,568.269104 702.083618,567.623779 
z"/>
<path fill="#000000" opacity="1.000000" stroke="none" 
	d="
M456.841675,367.839600 
	C465.647705,360.655701 474.829498,356.912872 485.602295,362.315155 
	C500.764984,369.918823 503.099121,383.030365 497.127960,398.473328 
	C491.542755,412.918121 475.650574,416.779694 460.669067,408.512909 
	C448.695038,401.905579 444.869751,385.079132 452.694580,373.271179 
	C453.886047,371.473267 455.274750,369.806061 456.841675,367.839600 
M471.176941,389.185913 
	C474.966095,389.188324 478.873718,389.556641 482.161743,387.161377 
	C486.231720,384.196503 486.287964,380.232178 484.415131,376.030609 
	C482.498169,371.730164 477.764496,369.552765 472.758423,370.524445 
	C468.481934,371.354523 463.434448,376.410950 463.075256,380.109772 
	C462.545044,385.569946 465.726013,387.915161 471.176941,389.185913 
z"/>
<path fill="#000000" opacity="1.000000" stroke="none" 
	d="
M626.739868,406.774109 
	C617.203003,415.338562 607.469849,414.053436 598.387878,408.622528 
	C588.277893,402.576813 584.510681,393.123199 585.926819,381.913452 
	C588.344116,362.778381 610.329163,354.207153 624.554321,364.569153 
	C635.591492,372.608948 638.940979,389.725800 631.281860,401.008636 
	C629.976929,402.930969 628.436646,404.693542 626.739868,406.774109 
M619.915161,386.351196 
	C621.289917,384.987976 621.811890,383.320526 621.864624,381.405609 
	C621.973083,377.462891 620.858521,373.835236 617.224792,372.167999 
	C612.415771,369.961456 607.595825,370.848480 603.064819,373.710754 
	C599.628784,375.881317 598.765747,378.924011 599.147095,382.672028 
	C599.514526,386.283966 602.199585,387.710480 605.059570,388.631561 
	C610.018188,390.228516 614.844727,389.588928 619.915161,386.351196 
M616.691650,399.470093 
	C613.261108,398.480469 609.942261,399.092255 605.920288,399.810242 
	C609.942322,402.167145 613.148132,401.828705 616.691650,399.470093 
z"/>
<path fill="#000000" opacity="1.000000" stroke="none" 
	d="
M531.032349,444.277649 
	C526.079468,443.738068 521.857910,442.497528 518.235962,439.537781 
	C516.500427,438.119537 515.170715,436.539825 514.573608,434.359314 
	C513.879944,431.826233 513.499634,429.181183 516.179321,427.719421 
	C518.595276,426.401550 520.706482,427.876007 522.307373,429.683899 
	C523.985596,431.579163 525.688904,433.287384 528.200195,434.074341 
	C533.287781,435.668549 537.263428,433.146271 537.649902,427.878540 
	C537.796631,425.878601 537.877319,423.904480 538.769348,422.056915 
	C539.729370,420.068787 541.260071,418.811920 543.488159,419.135498 
	C545.938782,419.491364 547.166321,421.142914 547.263672,423.657227 
	C547.334045,425.472900 547.253113,427.359283 547.722473,429.082642 
	C549.236694,434.642334 554.359131,436.712250 559.332764,433.948303 
	C560.778870,433.144684 562.158447,432.134064 563.701782,431.612976 
	C566.014709,430.832092 568.503418,430.723816 569.727661,433.384888 
	C570.832642,435.786957 570.093750,438.198151 567.838013,439.468719 
	C560.372375,443.673920 552.976013,449.314819 544.212097,441.969269 
	C542.576782,440.598633 540.736511,441.331970 539.052490,442.171448 
	C536.656860,443.365662 534.234253,444.438660 531.032349,444.277649 
z"/>
<path fill="#000000" opacity="1.000000" stroke="none" 
	d="
M594.432617,341.795471 
	C591.776611,340.650665 590.807983,338.834229 591.259521,336.432922 
	C591.716919,333.999725 593.618286,332.859314 595.807007,332.311615 
	C608.996155,329.011322 620.791870,332.900269 631.965149,339.576324 
	C634.047485,340.820496 634.798523,342.990784 633.285095,345.184052 
	C631.529358,347.728455 629.075134,348.337585 626.303955,346.794708 
	C620.588440,343.612579 614.645386,341.464264 608.042542,340.556244 
	C603.338257,339.909302 599.216064,341.540649 594.432617,341.795471 
z"/>
<path fill="#000000" opacity="1.000000" stroke="none" 
	d="
M464.138977,333.790283 
	C472.574982,331.575775 480.836578,330.745300 489.086700,330.029724 
	C492.306061,329.750519 495.946564,330.751862 496.042542,334.739990 
	C496.135345,338.596222 492.718719,338.951660 489.562988,339.289246 
	C480.047852,340.307159 470.394318,340.697968 461.623016,345.321960 
	C459.208435,346.594910 456.187439,347.318604 454.481140,344.486847 
	C452.656830,341.459259 454.614807,339.084656 457.208130,337.461182 
	C459.307831,336.146729 461.573151,335.096893 464.138977,333.790283 
z"/>
<path fill="#000000" opacity="1.000000" stroke="none" 
	d="
M541.128662,448.833466 
	C544.680481,448.982666 547.840454,448.961884 550.984863,449.172333 
	C553.259766,449.324524 555.439209,450.189423 555.839722,452.705750 
	C556.285400,455.506165 554.000244,456.362640 551.861206,456.949890 
	C546.315918,458.472290 540.743652,458.920166 535.106140,457.279724 
	C531.350647,456.186890 529.167786,454.220764 530.577454,450.014923 
	C531.958740,445.893555 534.880798,446.663818 537.895874,447.800842 
	C538.828857,448.152649 539.784790,448.443634 541.128662,448.833466 
z"/>
<path fill="#000000" opacity="1.000000" stroke="none" 
	d="
M392.772491,420.122375 
	C394.132263,417.398438 395.277069,414.997742 396.602386,412.701233 
	C397.779694,410.661163 399.347260,408.856659 401.685242,408.175354 
	C403.598175,407.617889 405.731842,407.286194 407.250702,409.067444 
	C408.845886,410.938171 408.046051,412.851959 406.761169,414.506592 
	C404.106964,417.924530 401.849182,421.577087 399.750092,425.355957 
	C398.654327,427.328613 397.385681,430.084717 394.712799,429.258911 
	C391.995148,428.419250 391.876801,425.470978 392.058350,422.903229 
	C392.115906,422.089600 392.436096,421.294525 392.772491,420.122375 
z"/>
<path fill="#000000" opacity="1.000000" stroke="none" 
	d="
M651.847900,416.393311 
	C652.841797,412.430878 653.931458,408.949738 656.409790,406.133148 
	C657.818359,404.532410 659.587341,403.531158 661.686523,404.662964 
	C663.852478,405.830750 663.780518,407.982910 663.151794,409.915131 
	C661.873962,413.842773 660.435608,417.724762 658.892944,421.556915 
	C658.106689,423.509857 657.253418,425.989014 654.503113,425.452454 
	C651.882202,424.941132 651.700134,422.507751 651.663513,420.289337 
	C651.644409,419.132843 651.742920,417.974426 651.847900,416.393311 
z"/>
<path fill="#000000" opacity="1.000000" stroke="none" 
	d="
M421.081665,418.142212 
	C418.537689,420.317047 417.505646,422.848450 417.168823,425.766083 
	C417.009552,427.145752 416.351532,428.372131 414.847931,428.667450 
	C413.172821,428.996429 411.964630,428.044312 411.094269,426.759155 
	C409.100983,423.815857 409.579010,420.847748 411.000153,417.795349 
	C412.583649,414.394226 414.283051,411.150024 418.435364,410.489471 
	C420.388214,410.178772 422.107239,411.043243 423.073914,412.755371 
	C424.323486,414.968597 422.829803,416.488678 421.081665,418.142212 
z"/>
<path fill="#000000" opacity="1.000000" stroke="none" 
	d="
M666.271362,416.800446 
	C667.455627,413.767090 668.651794,411.187164 670.809814,409.258057 
	C672.471680,407.772461 674.431213,407.526917 676.304504,408.850342 
	C678.377991,410.315125 678.113159,412.139313 676.868103,414.069061 
	C675.140991,416.745941 674.117859,419.736145 673.190186,422.758636 
	C672.539246,424.879395 671.905334,427.192596 668.979248,426.591095 
	C666.428284,426.066711 665.709839,423.974335 665.745422,421.634064 
	C665.768005,420.150024 665.993469,418.669037 666.271362,416.800446 
z"/>
<path fill="#000000" opacity="1.000000" stroke="none" 
	d="
M426.885742,423.190918 
	C427.784576,419.540466 429.283997,416.593597 431.406006,414.006226 
	C433.234467,411.776733 435.540192,411.182129 437.956055,413.009918 
	C440.263336,414.755493 439.298676,416.737305 438.063812,418.694336 
	C436.829803,420.649963 435.471100,422.578491 434.599945,424.696930 
	C433.742432,426.782135 433.092438,429.077332 430.401947,428.750122 
	C427.620575,428.411865 426.822662,426.149811 426.885742,423.190918 
z"/>
<path fill="#000000" opacity="1.000000" stroke="none" 
	d="
M683.239136,418.808228 
	C684.806702,416.031830 685.805176,413.293396 688.249573,411.661407 
	C690.002747,410.490875 691.953674,409.991425 693.747681,411.548706 
	C695.671570,413.218689 695.191223,415.105957 693.759583,416.796814 
	C692.124023,418.728455 691.161438,420.998230 690.119507,423.249115 
	C689.199524,425.236420 688.133240,427.437653 685.489685,426.904572 
	C682.711426,426.344360 683.076416,423.722107 682.885132,421.640900 
	C682.811157,420.834961 683.018616,420.003174 683.239136,418.808228 
z"/>
<path fill="#000000" opacity="1.000000" stroke="none" 
	d="
M619.527344,669.683594 
	C616.315186,668.883789 613.117981,669.771851 609.700195,666.977661 
	C617.589966,664.918091 624.076416,666.744019 630.593506,668.742126 
	C627.203857,671.196350 623.549927,670.089661 619.527344,669.683594 
z"/>
<path fill="#000000" opacity="1.000000" stroke="none" 
	d="
M584.908447,680.108582 
	C578.354858,680.048767 572.010742,681.716553 565.792542,679.258972 
	C566.755615,676.748657 568.423767,677.000793 569.822571,677.056030 
	C574.607666,677.244751 579.391846,677.514954 584.165039,677.896912 
	C585.230713,677.982117 587.820190,677.866150 584.908447,680.108582 
z"/>
<path fill="#000000" opacity="1.000000" stroke="none" 
	d="
M621.265015,662.514404 
	C617.846802,663.968994 614.912354,663.274963 611.281494,660.806152 
	C615.484924,660.093323 618.744690,658.682007 621.265015,662.514404 
z"/>
<path fill="#000000" opacity="1.000000" stroke="none" 
	d="
M448.475128,666.419922 
	C447.424591,665.986328 445.607483,665.444092 447.316650,664.748230 
	C450.077972,663.624146 453.233826,663.026611 456.404510,665.230408 
	C454.038788,668.308838 451.317047,666.795776 448.475128,666.419922 
z"/>
<path fill="#000000" opacity="1.000000" stroke="none" 
	d="
M674.819336,657.048828 
	C672.341614,658.339722 671.106873,657.248657 670.648865,655.179871 
	C670.398987,654.050903 671.337830,653.250122 672.423035,653.318359 
	C674.530945,653.450684 675.887268,654.371094 674.819336,657.048828 
z"/>
<path fill="#000000" opacity="1.000000" stroke="none" 
	d="
M541.227295,684.432861 
	C542.152039,680.045898 544.296082,682.177368 546.670410,683.111694 
	C545.256653,685.897583 543.326843,685.160767 541.227295,684.432861 
z"/>
<path fill="#000000" opacity="1.000000" stroke="none" 
	d="
M338.724792,655.654663 
	C335.748779,654.073914 333.272797,652.459900 331.502960,649.968750 
	C330.432251,648.461670 330.232635,646.903259 331.470612,645.426758 
	C332.784760,643.859436 334.509155,643.295593 336.315979,644.394836 
	C338.280792,645.590088 340.145081,646.976196 341.936707,648.423340 
	C343.693420,649.842224 346.157013,651.239990 345.071716,653.971191 
	C344.001984,656.663330 341.414734,656.263550 338.724792,655.654663 
z"/>
<path fill="#000000" opacity="1.000000" stroke="none" 
	d="
M314.460022,651.535889 
	C317.328735,650.625549 318.827026,651.846436 318.966827,654.176270 
	C319.154358,657.301331 319.005890,660.471436 318.695343,663.591736 
	C318.521667,665.336853 317.321014,666.710388 315.361511,666.669434 
	C313.287628,666.626099 312.390259,665.003418 312.454590,663.282837 
	C312.599884,659.397949 311.687317,655.317993 314.460022,651.535889 
z"/>
</svg>